<?xml version="1.0" encoding="UTF-8" standalone="no"?>
<!DOCTYPE svg PUBLIC "-//W3C//DTD SVG 1.1//EN" "http://www.w3.org/Graphics/SVG/1.1/DTD/svg11.dtd">
<!-- Created with Vectornator (http://vectornator.io/) -->
<svg height="100%" stroke-miterlimit="10" style="fill-rule:nonzero;clip-rule:evenodd;stroke-linecap:round;stroke-linejoin:round;" version="1.1" viewBox="0 0 1000.23 713.465" width="100%" xml:space="preserve" xmlns="http://www.w3.org/2000/svg" xmlns:vectornator="http://vectornator.io" xmlns:xlink="http://www.w3.org/1999/xlink">
<defs/>
<g id="Untitled" vectornator:layerName="Untitled">
<g opacity="1" vectornator:layerName="Group 1">
<path d="M212.447 1.60642C131.319 9.13189 54.3717 65.4505 20.3542 142.398C0.836926 186.449-4.45537 249.733 7.52623 295.456C33.1822 392.482 116.544 465.249 212.172 474.446C223.042 475.283 230.853 477.516 230.853 479.188C230.578 485.602 219.697 506.231 208.267 521.842C173.974 568.117 112.363 616.074 29.2767 660.686C3.62074 674.626-2.50773 681.876 0.836926 694.704C1.67309 698.324 5.01774 703.902 8.36239 707.246C13.6547 712.549 16.1632 712.824 35.4051 711.427C76.9481 708.082 147.206 690.238 195.439 670.72C323.127 618.582 410.394 524.902 452.212 394.98C468.385 345.076 474.238 306.602 474.513 249.447C474.788 191.732 471.729 176.405 451.09 133.741C407.61 43.4248 314.765-7.87689 212.447 1.60642Z" fill="#000000" fill-rule="nonzero" opacity="1" stroke="none" vectornator:layerName="path"/>
<path d="M736.874 1.3209C707.038 4.66555 683.625 11.6404 656.022 25.2943C538.928 83.2955 490.696 225.759 548.687 342.853C568.479 382.999 604.169 421.472 642.082 443.784C671.358 461.068 718.193 475.283 745.522 475.283C756.953 475.283 757.228 477.24 747.755 495.911C722.935 545.541 643.479 613.29 560.118 656.23C544.781 664.041 530.281 673.239 527.783 676.584C521.644 685.781 522.48 697.498 530.567 705.299C538.653 713.66 549.798 714.221 586.324 707.807C714.012 685.781 819.685 631.696 887.71 553.076C937.89 495.085 974.141 419.81 989.192 342.302C1001.73 277.061 1002.57 225.209 991.975 180.596C964.933 66.8475 853.692-11.2215 736.874 1.3209Z" fill="#000000" fill-rule="nonzero" opacity="1" stroke="none" vectornator:layerName="path"/>
</g>
</g>
</svg>
